<?xml version="1.0" encoding="UTF-8" standalone="no"?>
<!DOCTYPE svg PUBLIC "-//W3C//DTD SVG 1.1//EN" "http://www.w3.org/Graphics/SVG/1.1/DTD/svg11.dtd">
<!-- Created with Vectornator (http://vectornator.io/) -->
<svg height="100%" stroke-miterlimit="10" style="fill-rule:nonzero;clip-rule:evenodd;stroke-linecap:round;stroke-linejoin:round;" version="1.1" viewBox="0 0 200 51.2" width="100%" xml:space="preserve" xmlns="http://www.w3.org/2000/svg" xmlns:vectornator="http://vectornator.io" xmlns:xlink="http://www.w3.org/1999/xlink">
<defs/>
<g id="Layer-1" vectornator:layerName="Layer 1">
<g fill="#000000" opacity="1" stroke="none">
<path d="M16.7305 8.3257L15.0742 8.3257C14.9284 7.21111 14.4023 6.65382 13.4961 6.65382C12.9128 6.65382 12.4727 6.79445 12.1758 7.0757C11.8789 7.35695 11.7305 7.77622 11.7305 8.33351C11.7305 8.75018 11.8945 9.1408 12.2227 9.50538L15.7539 13.4741C16.4049 14.2033 16.7305 14.9872 16.7305 15.8257L16.7305 16.6694C16.7305 17.5705 16.4049 18.3504 15.7539 19.0093C15.1029 19.6681 14.319 19.9976 13.4023 19.9976L11.7305 19.9976C10.6263 19.9976 9.79557 19.7189 9.23828 19.1616C8.68099 18.6043 8.40234 17.7736 8.40234 16.6694L10.0742 16.6694C10.0638 16.784 10.0586 16.8752 10.0586 16.9429C10.0586 17.396 10.2331 17.7398 10.582 17.9741C10.931 18.2085 11.3138 18.3257 11.7305 18.3257C12.3242 18.3257 12.7513 18.1825 13.0117 17.896C13.2721 17.6096 13.4023 17.1929 13.4023 16.646C13.4023 16.2241 13.2383 15.8335 12.9102 15.4741L9.37891 11.521C8.72786 10.7971 8.40234 10.0132 8.40234 9.16945L8.40234 8.3257C8.40234 7.41945 8.72786 6.6382 9.37891 5.98195C10.0299 5.3257 10.8138 4.99757 11.7305 4.99757L13.4023 4.99757C15.4857 4.99757 16.5951 6.10695 16.7305 8.3257Z"/>
<path d="M21.7461 4.99757L25.0742 4.99757L25.0742 8.3257L26.7461 8.3257L26.7461 9.99757L25.0742 9.99757L25.0742 16.6694C25.0742 17.2059 25.2513 17.6161 25.6055 17.8999C25.9596 18.1838 26.2878 18.3257 26.5898 18.3257L26.7461 18.3257L26.7461 19.9976L25.0742 19.9976C24.1576 19.9976 23.3737 19.6707 22.7227 19.0171C22.0716 18.3635 21.7461 17.5809 21.7461 16.6694L21.7461 9.99757L20.0742 9.99757L20.0742 8.3257L21.7461 8.3257L21.7461 4.99757Z"/>
<path d="M33.4023 19.9976L30.0742 19.9976L30.0742 8.3257L33.4023 8.3257L33.4023 11.6694C33.5326 10.5549 33.8763 9.71893 34.4336 9.16163C34.9909 8.60434 35.7617 8.3257 36.7461 8.3257L38.4023 8.3257L38.4023 11.6694L35.0742 11.6694C34.6159 11.6694 34.2227 11.8322 33.8945 12.1577C33.5664 12.4832 33.4023 12.8726 33.4023 13.3257L33.4023 19.9976Z"/>
<path d="M50.0742 8.3257L50.0742 19.9976L46.7461 19.9976L46.7461 18.3257C46.6159 19.4403 46.0586 19.9976 45.0742 19.9976L43.4023 19.9976C42.4909 19.9976 41.7083 19.6707 41.0547 19.0171C40.401 18.3635 40.0742 17.5809 40.0742 16.6694L40.0742 8.3257L43.4023 8.3257L43.4023 16.6694C43.4023 17.1174 43.5651 17.5054 43.8906 17.8335C44.2161 18.1616 44.6107 18.3257 45.0742 18.3257C45.5378 18.3257 45.9323 18.1616 46.2578 17.8335C46.5833 17.5054 46.7461 17.1174 46.7461 16.6694L46.7461 8.3257L50.0742 8.3257Z"/>
<path d="M61.7305 11.6694L60.0742 11.6694C59.944 10.5549 59.3867 9.99757 58.4023 9.99757C57.944 9.99757 57.5508 10.1616 57.2227 10.4898C56.8945 10.8179 56.7305 11.2111 56.7305 11.6694L56.7305 16.6694C56.7305 17.1174 56.8932 17.5054 57.2188 17.8335C57.5443 18.1616 57.9388 18.3257 58.4023 18.3257C59.3867 18.3257 59.944 17.7736 60.0742 16.6694L61.7305 16.6694C61.5951 18.8882 60.4857 19.9976 58.4023 19.9976L56.7305 19.9976C55.819 19.9976 55.0365 19.6707 54.3828 19.0171C53.7292 18.3635 53.4023 17.5809 53.4023 16.6694L53.4023 11.6694C53.4023 10.7476 53.7305 9.95981 54.3867 9.30617C55.043 8.65252 55.8242 8.3257 56.7305 8.3257L58.4023 8.3257C60.4961 8.3257 61.6055 9.44028 61.7305 11.6694Z"/>
<path d="M66.7461 4.99757L70.0742 4.99757L70.0742 8.3257L71.7461 8.3257L71.7461 9.99757L70.0742 9.99757L70.0742 16.6694C70.0742 17.2059 70.2513 17.6161 70.6055 17.8999C70.9596 18.1838 71.2878 18.3257 71.5898 18.3257L71.7461 18.3257L71.7461 19.9976L70.0742 19.9976C69.1576 19.9976 68.3737 19.6707 67.7227 19.0171C67.0716 18.3635 66.7461 17.5809 66.7461 16.6694L66.7461 9.99757L65.0742 9.99757L65.0742 8.3257L66.7461 8.3257L66.7461 4.99757Z"/>
<path d="M85.0742 8.3257L85.0742 19.9976L81.7461 19.9976L81.7461 18.3257C81.6159 19.4403 81.0586 19.9976 80.0742 19.9976L78.4023 19.9976C77.4909 19.9976 76.7083 19.6707 76.0547 19.0171C75.401 18.3635 75.0742 17.5809 75.0742 16.6694L75.0742 8.3257L78.4023 8.3257L78.4023 16.6694C78.4023 17.1174 78.5651 17.5054 78.8906 17.8335C79.2161 18.1616 79.6107 18.3257 80.0742 18.3257C80.5378 18.3257 80.9323 18.1616 81.2578 17.8335C81.5833 17.5054 81.7461 17.1174 81.7461 16.6694L81.7461 8.3257L85.0742 8.3257Z"/>
<path d="M91.7305 19.9976L88.4023 19.9976L88.4023 8.3257L91.7305 8.3257L91.7305 11.6694C91.8607 10.5549 92.2044 9.71893 92.7617 9.16163C93.319 8.60434 94.0898 8.3257 95.0742 8.3257L96.7305 8.3257L96.7305 11.6694L93.4023 11.6694C92.944 11.6694 92.5508 11.8322 92.2227 12.1577C91.8945 12.4832 91.7305 12.8726 91.7305 13.3257L91.7305 19.9976Z"/>
<path d="M108.402 14.9976L101.73 14.9976L101.73 16.6694C101.73 17.1174 101.893 17.5054 102.219 17.8335C102.544 18.1616 102.939 18.3257 103.402 18.3257L105.074 18.3257C106.178 18.3257 106.73 17.7736 106.73 16.6694L108.402 16.6694C108.142 18.8882 107.033 19.9976 105.074 19.9976L101.73 19.9976C100.819 19.9976 100.036 19.6707 99.3828 19.0171C98.7292 18.3635 98.4023 17.5809 98.4023 16.6694L98.4023 11.6694C98.4023 10.7476 98.7305 9.95981 99.3867 9.30617C100.043 8.65252 100.824 8.3257 101.73 8.3257L105.074 8.3257C105.986 8.3257 106.768 8.65512 107.422 9.31398C108.076 9.97283 108.402 10.758 108.402 11.6694L108.402 14.9976ZM101.73 13.3257L105.074 13.3257L105.074 11.6694C105.074 11.2111 104.909 10.8179 104.578 10.4898C104.247 10.1616 103.855 9.99757 103.402 9.99757C102.944 9.99757 102.551 10.1616 102.223 10.4898C101.895 10.8179 101.73 11.2111 101.73 11.6694L101.73 13.3257Z"/>
<path d="M121.73 19.9976L118.402 19.9976L118.402 18.3257C118.272 19.4403 117.715 19.9976 116.73 19.9976L115.059 19.9976C114.147 19.9976 113.365 19.6707 112.711 19.0171C112.057 18.3635 111.73 17.5809 111.73 16.6694L111.73 11.6694C111.73 10.7476 112.059 9.95981 112.715 9.30617C113.371 8.65252 114.152 8.3257 115.059 8.3257L118.402 8.3257L118.402 4.99757L121.73 4.99757L121.73 19.9976ZM118.402 9.99757L116.73 9.99757C116.272 9.99757 115.879 10.1616 115.551 10.4898C115.223 10.8179 115.059 11.2111 115.059 11.6694L115.059 16.6694C115.059 17.1174 115.221 17.5054 115.547 17.8335C115.872 18.1616 116.267 18.3257 116.73 18.3257C117.194 18.3257 117.589 18.1616 117.914 17.8335C118.24 17.5054 118.402 17.1174 118.402 16.6694L118.402 9.99757Z"/>
<path d="M136.613 4.99757L139.941 4.99757L139.941 14.3023C139.941 15.8543 139.383 17.1916 138.266 18.314C137.148 19.4364 135.809 19.9976 134.246 19.9976L129.941 19.9976L129.941 4.99757L133.27 4.99757L133.27 18.3257L134.941 18.3257C135.405 18.3257 135.799 18.1616 136.125 17.8335C136.451 17.5054 136.613 17.1174 136.613 16.6694L136.613 4.99757Z"/>
<path d="M143.27 6.66945L143.27 4.99757L146.598 4.99757L146.598 6.66945L143.27 6.66945ZM143.27 19.9976L143.27 8.3257L146.598 8.3257L146.598 19.9976L143.27 19.9976Z"/>
<path d="M158.27 11.6694L156.613 11.6694C156.467 10.5549 155.941 9.99757 155.035 9.99757C154.447 9.99757 154.004 10.1135 153.707 10.3452C153.41 10.577 153.262 10.9221 153.262 11.3804C153.262 11.8596 154.072 12.5314 155.691 13.396C157.009 14.1043 157.768 14.6916 157.969 15.1577C158.169 15.6239 158.27 16.12 158.27 16.646C158.27 17.5731 157.943 18.3635 157.289 19.0171C156.635 19.6707 155.853 19.9976 154.941 19.9976L153.27 19.9976C151.051 19.9976 149.941 18.8882 149.941 16.6694L151.613 16.6694C151.743 17.7788 152.264 18.3335 153.176 18.3335C153.764 18.3335 154.207 18.2163 154.504 17.9819C154.801 17.7476 154.949 17.4012 154.949 16.9429C154.949 16.4741 154.142 15.8023 152.527 14.9273C151.204 14.2241 150.443 13.6382 150.242 13.1694C150.042 12.7007 149.941 12.2059 149.941 11.6851C149.941 10.7528 150.27 9.95981 150.926 9.30617C151.582 8.65252 152.363 8.3257 153.27 8.3257L154.941 8.3257C157.025 8.3257 158.134 9.44028 158.27 11.6694Z"/>
<path d="M171.613 8.3257L171.613 19.9976L168.285 19.9976L168.285 18.3257C168.155 19.4403 167.598 19.9976 166.613 19.9976L164.941 19.9976C164.03 19.9976 163.247 19.6707 162.594 19.0171C161.94 18.3635 161.613 17.5809 161.613 16.6694L161.613 8.3257L164.941 8.3257L164.941 16.6694C164.941 17.1174 165.104 17.5054 165.43 17.8335C165.755 18.1616 166.15 18.3257 166.613 18.3257C167.077 18.3257 167.471 18.1616 167.797 17.8335C168.122 17.5054 168.285 17.1174 168.285 16.6694L168.285 8.3257L171.613 8.3257Z"/>
<path d="M181.613 13.3257L181.613 11.6694C181.613 11.2111 181.448 10.8179 181.117 10.4898C180.786 10.1616 180.395 9.99757 179.941 9.99757L178.27 9.99757C177.285 9.99757 176.733 10.5549 176.613 11.6694L174.941 11.6694C175.197 9.44028 176.306 8.3257 178.27 8.3257L181.613 8.3257C182.525 8.3257 183.307 8.65512 183.961 9.31398C184.615 9.97283 184.941 10.758 184.941 11.6694L184.941 19.9976L181.613 19.9976L181.613 18.3257C181.483 19.4403 180.926 19.9976 179.941 19.9976L178.27 19.9976C177.358 19.9976 176.576 19.6707 175.922 19.0171C175.268 18.3635 174.941 17.5809 174.941 16.6694L174.941 16.6538C174.941 15.7424 175.27 14.9598 175.926 14.3062C176.582 13.6525 177.363 13.3257 178.27 13.3257L181.613 13.3257ZM181.613 14.9976L179.941 14.9976C179.483 14.9976 179.09 15.1603 178.762 15.4859C178.434 15.8114 178.27 16.2007 178.27 16.6538L178.27 16.6694C178.27 17.1174 178.432 17.5054 178.758 17.8335C179.083 18.1616 179.478 18.3257 179.941 18.3257C180.405 18.3257 180.799 18.1616 181.125 17.8335C181.451 17.5054 181.613 17.1174 181.613 16.6694L181.613 14.9976Z"/>
<path d="M188.27 19.9976L188.27 4.99757L191.598 4.99757L191.598 19.9976L188.27 19.9976Z"/>
<path d="M8.40234 44.9976L8.40234 31.6694L5.07422 31.6694L5.07422 29.9976L15.0742 29.9976L15.0742 31.6694L11.7461 31.6694L11.7461 44.9976L8.40234 44.9976Z" fill="#ea580c"/>
<path d="M16.7461 44.9976L16.7461 29.9976L20.0742 29.9976L20.0742 34.9976C20.1419 34.4351 20.3151 34.0158 20.5938 33.7398C20.8724 33.4637 21.2565 33.3257 21.7461 33.3257L23.418 33.3257C24.3294 33.3257 25.112 33.6551 25.7656 34.314C26.4193 34.9728 26.7461 35.758 26.7461 36.6694L26.7461 44.9976L23.418 44.9976L23.418 36.6694C23.418 36.2111 23.2526 35.8179 22.9219 35.4898C22.5911 35.1616 22.1992 34.9976 21.7461 34.9976C21.2878 34.9976 20.8945 35.1616 20.5664 35.4898C20.2383 35.8179 20.0742 36.2111 20.0742 36.6694L20.0742 44.9976L16.7461 44.9976Z" fill="#ea580c"/>
<path d="M30.0742 31.6694L30.0742 29.9976L33.4023 29.9976L33.4023 31.6694L30.0742 31.6694ZM30.0742 44.9976L30.0742 33.3257L33.4023 33.3257L33.4023 44.9976L30.0742 44.9976Z" fill="#ea580c"/>
<path d="M36.7461 44.9976L36.7461 33.3257L40.0742 33.3257L40.0742 34.9976C40.1419 34.4351 40.3151 34.0158 40.5938 33.7398C40.8724 33.4637 41.2565 33.3257 41.7461 33.3257L43.418 33.3257C44.3294 33.3257 45.112 33.6551 45.7656 34.314C46.4193 34.9728 46.7461 35.758 46.7461 36.6694L46.7461 44.9976L43.418 44.9976L43.418 36.6694C43.418 36.2111 43.2526 35.8179 42.9219 35.4898C42.5911 35.1616 42.1992 34.9976 41.7461 34.9976C41.2878 34.9976 40.8945 35.1616 40.5664 35.4898C40.2383 35.8179 40.0742 36.2111 40.0742 36.6694L40.0742 44.9976L36.7461 44.9976Z" fill="#ea580c"/>
<path d="M50.0742 44.9976L50.0742 29.9976L53.4023 29.9976L53.4023 37.4976L58.4023 33.3257L61.7461 33.3257L54.7617 39.1694L61.7461 44.9976L58.4023 44.9976L53.4023 40.8257L53.4023 44.9976L50.0742 44.9976Z" fill="#ea580c"/>
<path d="M63.4023 31.6694L63.4023 29.9976L66.7305 29.9976L66.7305 31.6694L63.4023 31.6694ZM63.4023 44.9976L63.4023 33.3257L66.7305 33.3257L66.7305 44.9976L63.4023 44.9976Z" fill="#ea580c"/>
<path d="M70.0742 44.9976L70.0742 33.3257L73.4023 33.3257L73.4023 34.9976C73.4701 34.4351 73.6432 34.0158 73.9219 33.7398C74.2005 33.4637 74.5846 33.3257 75.0742 33.3257L76.7461 33.3257C77.6576 33.3257 78.4401 33.6551 79.0938 34.314C79.7474 34.9728 80.0742 35.758 80.0742 36.6694L80.0742 44.9976L76.7461 44.9976L76.7461 36.6694C76.7461 36.2111 76.5807 35.8179 76.25 35.4898C75.9193 35.1616 75.5273 34.9976 75.0742 34.9976C74.6159 34.9976 74.2227 35.1616 73.8945 35.4898C73.5664 35.8179 73.4023 36.2111 73.4023 36.6694L73.4023 44.9976L70.0742 44.9976Z" fill="#ea580c"/>
<path d="M93.4023 33.3257L93.4023 46.6694C93.4023 47.5757 93.0729 48.3569 92.4141 49.0132C91.7552 49.6694 90.9753 49.9976 90.0742 49.9976L86.7305 49.9976C84.7669 49.9976 83.6576 48.8882 83.4023 46.6694L85.0742 46.6694C85.1523 47.7736 85.7044 48.3257 86.7305 48.3257L88.4023 48.3257C88.8555 48.3257 89.2474 48.1629 89.5781 47.8374C89.9089 47.5119 90.0742 47.1226 90.0742 46.6694L90.0742 43.3257C89.944 44.4403 89.3867 44.9976 88.4023 44.9976L86.7305 44.9976C85.819 44.9976 85.0365 44.6707 84.3828 44.0171C83.7292 43.3635 83.4023 42.5809 83.4023 41.6694L83.4023 36.6694C83.4023 35.7476 83.7305 34.9598 84.3867 34.3062C85.043 33.6525 85.8242 33.3257 86.7305 33.3257L93.4023 33.3257ZM90.0742 34.9976L88.4023 34.9976C87.944 34.9976 87.5508 35.1616 87.2227 35.4898C86.8945 35.8179 86.7305 36.2111 86.7305 36.6694L86.7305 41.6694C86.7305 42.1174 86.8932 42.5054 87.2188 42.8335C87.5443 43.1616 87.9388 43.3257 88.4023 43.3257C88.8659 43.3257 89.2604 43.1616 89.5859 42.8335C89.9115 42.5054 90.0742 42.1174 90.0742 41.6694L90.0742 34.9976Z" fill="#ea580c"/>
<path d="M101.613 44.9976L101.613 29.9976L102.371 29.9976L109.496 37.1069L116.613 29.9976L118.285 29.9976L118.285 44.9976L114.941 44.9976L114.941 35.8257L109.09 41.6773L103.285 35.8257L103.285 44.9976L101.613 44.9976Z"/>
<path d="M131.613 39.9976L124.941 39.9976L124.941 41.6694C124.941 42.1174 125.104 42.5054 125.43 42.8335C125.755 43.1616 126.15 43.3257 126.613 43.3257L128.285 43.3257C129.389 43.3257 129.941 42.7736 129.941 41.6694L131.613 41.6694C131.353 43.8882 130.243 44.9976 128.285 44.9976L124.941 44.9976C124.03 44.9976 123.247 44.6707 122.594 44.0171C121.94 43.3635 121.613 42.5809 121.613 41.6694L121.613 36.6694C121.613 35.7476 121.941 34.9598 122.598 34.3062C123.254 33.6525 124.035 33.3257 124.941 33.3257L128.285 33.3257C129.197 33.3257 129.979 33.6551 130.633 34.314C131.286 34.9728 131.613 35.758 131.613 36.6694L131.613 39.9976ZM124.941 38.3257L128.285 38.3257L128.285 36.6694C128.285 36.2111 128.12 35.8179 127.789 35.4898C127.458 35.1616 127.066 34.9976 126.613 34.9976C126.155 34.9976 125.762 35.1616 125.434 35.4898C125.105 35.8179 124.941 36.2111 124.941 36.6694L124.941 38.3257Z"/>
<path d="M136.613 29.9976L139.941 29.9976L139.941 33.3257L141.613 33.3257L141.613 34.9976L139.941 34.9976L139.941 41.6694C139.941 42.2059 140.118 42.6161 140.473 42.8999C140.827 43.1838 141.155 43.3257 141.457 43.3257L141.613 43.3257L141.613 44.9976L139.941 44.9976C139.025 44.9976 138.241 44.6707 137.59 44.0171C136.939 43.3635 136.613 42.5809 136.613 41.6694L136.613 34.9976L134.941 34.9976L134.941 33.3257L136.613 33.3257L136.613 29.9976Z"/>
<path d="M144.941 44.9976L144.941 29.9976L148.27 29.9976L148.27 34.9976C148.337 34.4351 148.51 34.0158 148.789 33.7398C149.068 33.4637 149.452 33.3257 149.941 33.3257L151.613 33.3257C152.525 33.3257 153.307 33.6551 153.961 34.314C154.615 34.9728 154.941 35.758 154.941 36.6694L154.941 44.9976L151.613 44.9976L151.613 36.6694C151.613 36.2111 151.448 35.8179 151.117 35.4898C150.786 35.1616 150.395 34.9976 149.941 34.9976C149.483 34.9976 149.09 35.1616 148.762 35.4898C148.434 35.8179 148.27 36.2111 148.27 36.6694L148.27 44.9976L144.941 44.9976Z"/>
<path d="M161.598 33.3257L164.941 33.3257C165.853 33.3257 166.635 33.6551 167.289 34.314C167.943 34.9728 168.27 35.758 168.27 36.6694L168.27 41.6694C168.27 42.5705 167.943 43.3504 167.289 44.0093C166.635 44.6681 165.853 44.9976 164.941 44.9976L161.598 44.9976C160.686 44.9976 159.904 44.6707 159.25 44.0171C158.596 43.3635 158.27 42.5809 158.27 41.6694L158.27 36.6694C158.27 35.7476 158.598 34.9598 159.254 34.3062C159.91 33.6525 160.691 33.3257 161.598 33.3257ZM161.598 36.6694L161.598 41.6694C161.598 42.1174 161.76 42.5054 162.086 42.8335C162.411 43.1616 162.806 43.3257 163.27 43.3257C163.733 43.3257 164.128 43.1616 164.453 42.8335C164.779 42.5054 164.941 42.1174 164.941 41.6694L164.941 36.6694C164.941 36.2111 164.776 35.8179 164.445 35.4898C164.115 35.1616 163.723 34.9976 163.27 34.9976C162.811 34.9976 162.418 35.1616 162.09 35.4898C161.762 35.8179 161.598 36.2111 161.598 36.6694Z"/>
<path d="M181.598 44.9976L178.27 44.9976L178.27 43.3257C178.139 44.4403 177.582 44.9976 176.598 44.9976L174.926 44.9976C174.014 44.9976 173.232 44.6707 172.578 44.0171C171.924 43.3635 171.598 42.5809 171.598 41.6694L171.598 36.6694C171.598 35.7476 171.926 34.9598 172.582 34.3062C173.238 33.6525 174.02 33.3257 174.926 33.3257L178.27 33.3257L178.27 29.9976L181.598 29.9976L181.598 44.9976ZM178.27 34.9976L176.598 34.9976C176.139 34.9976 175.746 35.1616 175.418 35.4898C175.09 35.8179 174.926 36.2111 174.926 36.6694L174.926 41.6694C174.926 42.1174 175.089 42.5054 175.414 42.8335C175.74 43.1616 176.134 43.3257 176.598 43.3257C177.061 43.3257 177.456 43.1616 177.781 42.8335C178.107 42.5054 178.27 42.1174 178.27 41.6694L178.27 34.9976Z"/>
<path d="M193.254 36.6694L191.598 36.6694C191.452 35.5549 190.926 34.9976 190.02 34.9976C189.431 34.9976 188.988 35.1135 188.691 35.3452C188.395 35.577 188.246 35.9221 188.246 36.3804C188.246 36.8596 189.056 37.5314 190.676 38.396C191.993 39.1043 192.753 39.6916 192.953 40.1577C193.154 40.6239 193.254 41.12 193.254 41.646C193.254 42.5731 192.927 43.3635 192.273 44.0171C191.62 44.6707 190.837 44.9976 189.926 44.9976L188.254 44.9976C186.035 44.9976 184.926 43.8882 184.926 41.6694L186.598 41.6694C186.728 42.7788 187.249 43.3335 188.16 43.3335C188.749 43.3335 189.191 43.2163 189.488 42.9819C189.785 42.7476 189.934 42.4012 189.934 41.9429C189.934 41.4741 189.126 40.8023 187.512 39.9273C186.189 39.2241 185.427 38.6382 185.227 38.1694C185.026 37.7007 184.926 37.2059 184.926 36.6851C184.926 35.7528 185.254 34.9598 185.91 34.3062C186.566 33.6525 187.348 33.3257 188.254 33.3257L189.926 33.3257C192.009 33.3257 193.118 34.4403 193.254 36.6694Z"/>
</g>
</g>
</svg>
